<svg width="139" height="31" viewBox="0 0 139 31" fill="none" xmlns="http://www.w3.org/2000/svg">
<g clip-path="url(#clip0_4168_2605)">
<path d="M65.6173 24.0297C61.8301 24.0591 59.1144 21.3524 59.0842 17.5628C59.0541 13.725 61.8251 11.0228 65.7092 10.9944C69.4964 10.9655 72.0412 13.5293 72.0679 16.9321C72.0726 17.5407 72.0121 18.148 71.8875 18.7435L63.1483 18.8109C62.9055 18.8109 62.7854 18.9828 62.7869 19.1759C62.7945 20.1392 64.1358 20.9032 65.762 20.8905C66.8545 20.8819 68.0913 20.6558 68.4968 19.7595L72.0412 19.7321C71.1668 22.78 68.6511 24.0064 65.6168 24.0297H65.6173ZM62.7141 16.0864L68.2244 16.0439C68.4189 16.0439 68.5395 15.9212 68.538 15.7518C68.531 14.8347 67.4324 13.9987 65.8052 14.0109C64.2272 14.0231 63.0412 14.7805 62.7141 16.0864Z" fill="white"/>
<path d="M81.0813 23.9397C77.9494 23.964 76.1398 22.2884 76.1137 18.9089L76.08 14.5885L73.0456 14.6118L73.02 11.3297L75.1809 11.3129C75.7393 11.3084 76.0524 10.9925 76.0483 10.4374L76.0212 7.03711H79.6626L79.6963 11.278L84.0422 11.2445L84.0674 14.5272L79.7219 14.5606L79.7526 18.4947C79.7636 19.895 80.3747 20.4213 81.8069 20.4101C82.5779 20.4026 83.3476 20.3484 84.1121 20.2479L84.1392 23.7232C83.1447 23.8753 82.0044 23.9326 81.0818 23.9397" fill="white"/>
<path d="M89.4465 22.547L89.4967 29.0636L85.8553 29.0915L85.7654 17.5061C85.7362 13.7646 88.6032 10.9661 92.415 10.9377C96.2021 10.9083 99.0882 13.6379 99.1174 17.4032C99.1465 21.1685 96.4006 23.9432 92.9778 23.968C91.5938 23.9787 90.2304 23.5067 89.446 22.5485L89.4465 22.547ZM92.4889 20.4491C94.1397 20.4364 95.4403 19.1228 95.4272 17.4331C95.4142 15.7434 94.093 14.4506 92.4421 14.4632C90.7672 14.4759 89.442 15.79 89.455 17.4792C89.4681 19.1685 90.8119 20.4623 92.4889 20.4491" fill="white"/>
<path d="M100.478 17.4695C100.449 13.7042 103.292 10.9295 107.2 10.9006C110.987 10.8712 113.8 13.5293 113.828 17.1253L113.878 23.939H110.528L110.514 21.8097C109.603 23.2891 108.272 23.9268 106.719 23.939C103.247 23.9654 100.507 21.2353 100.478 17.4695H100.478ZM107.13 14.4251C105.406 14.4388 104.154 15.7275 104.165 17.4411C104.176 19.1547 105.451 20.4247 107.175 20.411C108.922 20.3978 110.151 19.1091 110.137 17.395C110.124 15.6809 108.876 14.4119 107.128 14.4251" fill="white"/>
<path d="M123.893 11.3262L123.921 14.8983L122.366 14.9115C120.569 14.9257 119.439 16.2616 119.451 18.0482L119.497 23.9412H115.855L115.809 18.076C115.772 13.2005 118.307 11.3708 122.337 11.3394L123.893 11.3262Z" fill="white"/>
<path d="M125.326 7.03711L125.472 23.9402H129.114L128.967 7.03711H125.326Z" fill="white"/>
<path d="M139 23.9392L134.092 17.7419C133.871 17.4778 133.773 17.3363 133.772 17.1888C133.772 17.02 133.867 16.8501 134.083 16.583L138.533 11.2871L134.163 11.3206L130.507 15.7419C129.786 16.6164 129.739 16.8339 129.743 17.3409C129.747 17.7972 129.871 18.112 130.508 18.9521L134.309 23.9392H139Z" fill="white"/>
<path d="M57.1798 7.08331H53.5142V19.6441C53.5173 20.0061 53.3243 20.1511 53.0328 20.1551C52.7901 20.1551 52.6433 20.037 52.4951 19.6989L47.638 10.1414C46.5013 7.54364 45.3545 6.8283 43.582 6.84199C41.0819 6.86125 39.6119 8.369 39.634 11.096V23.9534H43.2755V11.3576C43.2755 10.9956 43.4659 10.8506 43.7569 10.8471C44.0001 10.8471 44.1464 10.9647 44.2946 11.3034L49.1522 20.8624C50.2643 23.4125 51.5327 24.1755 53.3047 24.1618C55.7812 24.1425 57.2019 22.6348 57.1803 19.9077L57.1798 7.08331Z" fill="white"/>
<path d="M6.00487 30.9992C5.21639 30.9998 4.43552 30.8436 3.7069 30.5396C2.97828 30.2356 2.31621 29.7897 1.75853 29.2273C1.20084 28.665 0.758489 27.9973 0.456749 27.2624C0.155009 26.5275 -0.000198146 25.7399 1.89846e-07 24.9444V6.05454C0.000564317 4.85656 0.35312 3.68563 1.01312 2.68971C1.67311 1.6938 2.61093 0.917601 3.70806 0.459198C4.80519 0.000795607 6.01239 -0.119237 7.17712 0.114269C8.34185 0.347775 9.41183 0.924339 10.2518 1.7711L20.4876 12.0941C21.1849 12.7973 21.5908 13.7418 21.6228 14.7358C21.6548 15.7299 21.3106 16.699 20.66 17.4463C20.6499 17.4579 20.6293 17.4797 20.6022 17.5081C20.5535 17.5591 20.4952 17.5997 20.4308 17.6278C20.3664 17.6558 20.297 17.6706 20.2269 17.6713C20.1567 17.672 20.0871 17.6586 20.0221 17.6319C19.9571 17.6052 19.8981 17.5657 19.8484 17.5157L7.24364 4.80535C7.07397 4.6347 6.87146 4.50092 6.64859 4.41223C6.42571 4.32354 6.1872 4.28183 5.94774 4.28966C5.70829 4.2975 5.47295 4.35472 5.25625 4.45779C5.03955 4.56087 4.84606 4.70762 4.68771 4.889C4.40121 5.22791 4.24671 5.66038 4.25301 6.10574V24.8932C4.24638 25.3386 4.40093 25.7712 4.68771 26.11C4.84586 26.2915 5.03922 26.4385 5.25585 26.5417C5.47249 26.6449 5.7078 26.7023 5.94726 26.7102C6.18672 26.7182 6.42525 26.6765 6.64813 26.5878C6.87101 26.4992 7.07351 26.3653 7.24313 26.1946L8.47235 24.9556C8.57233 24.8548 8.7079 24.7982 8.84926 24.7982C8.99061 24.7982 9.12618 24.8548 9.22616 24.9556L11.4791 27.2309C11.579 27.3317 11.6351 27.4685 11.6351 27.6111C11.6351 27.7537 11.579 27.8905 11.4791 27.9913L10.2488 29.2284C9.69248 29.792 9.03082 30.2388 8.30218 30.5427C7.57353 30.8467 6.79235 31.0019 6.00387 30.9992H6.00487Z" fill="#13F0DA"/>
<path d="M23.6906 31.0001C22.9021 31.0026 22.1209 30.8473 21.3923 30.5432C20.6636 30.2392 20.002 29.7924 19.4456 29.2288L9.20781 18.9057C8.82837 18.5251 8.53158 18.0689 8.33632 17.5663C8.14105 17.0636 8.05157 16.5255 8.07357 15.9861C8.11516 15.0687 8.4703 14.1942 9.07866 13.511L9.08921 13.4989C9.13747 13.4464 9.19573 13.4044 9.26049 13.3752C9.32525 13.346 9.39519 13.3304 9.4661 13.3291C9.53701 13.3279 9.60744 13.3411 9.67316 13.368C9.73888 13.3949 9.79854 13.435 9.84855 13.4857L22.4518 26.1945C22.6213 26.3653 22.8238 26.4992 23.0466 26.588C23.2695 26.6767 23.508 26.7185 23.7475 26.7106C23.9869 26.7028 24.2222 26.6455 24.4389 26.5424C24.6556 26.4392 24.849 26.2924 25.0072 26.1109C25.294 25.7721 25.4485 25.3396 25.4419 24.8941V6.10666C25.4484 5.66135 25.2941 5.22887 25.0077 4.88992C24.8494 4.70847 24.656 4.56164 24.4393 4.45847C24.2227 4.35531 23.9874 4.29799 23.7479 4.29006C23.5084 4.28213 23.2699 4.32375 23.047 4.41235C22.8241 4.50095 22.6215 4.63467 22.4518 4.80525L21.2251 6.04683C21.1756 6.09681 21.1169 6.13645 21.0522 6.1635C20.9875 6.19055 20.9182 6.20447 20.8482 6.20447C20.7782 6.20447 20.7088 6.19055 20.6442 6.1635C20.5795 6.13645 20.5207 6.09681 20.4713 6.04683L18.2184 3.77254C18.1688 3.72263 18.1295 3.66336 18.1027 3.59812C18.0759 3.53287 18.0621 3.46294 18.0621 3.39231C18.0621 3.32168 18.0759 3.25175 18.1027 3.18651C18.1295 3.12126 18.1688 3.06199 18.2184 3.01208L19.4456 1.77202C20.2852 0.924263 21.3553 0.346819 22.5203 0.112754C23.6854 -0.121311 24.8931 -0.00147715 25.9906 0.457091C27.0881 0.91566 28.0262 1.69235 28.686 2.6889C29.3458 3.68544 29.6978 4.85704 29.6974 6.05545V24.9458C29.6977 25.7415 29.5425 26.5293 29.2406 27.2643C28.9388 27.9994 28.4962 28.6671 27.9383 29.2295C27.3804 29.7918 26.7181 30.2376 25.9892 30.5414C25.2603 30.8453 24.4792 31.0011 23.6906 31.0001V31.0001Z" fill="#13F0DA"/>
</g>
<defs>
<clipPath id="clip0_4168_2605">
<rect width="139" height="31" fill="white"/>
</clipPath>
</defs>
</svg>
